<svg id="Icons" xmlns="http://www.w3.org/2000/svg" viewBox="0 0 24 24"><defs><style>.cls-1{fill:#f8d800;}.cls-2{fill:#bbdefb;}</style></defs><title>Cloudy-Sun</title><path class="cls-1" d="M17,5a5,5,0,0,0-4.74,3.41,1,1,0,0,0,.25,1,4.45,4.45,0,0,1,.81,1.05,1,1,0,0,0,.87.5H16.5a3.44,3.44,0,0,1,3,1.69,1,1,0,0,0,.84.49h0a1,1,0,0,0,.84-.45A5,5,0,0,0,17,5Z"/><path class="cls-2" d="M21.21,11.67A5.49,5.49,0,0,0,16.5,9H14.74a6.61,6.61,0,0,0-.83-1A7,7,0,1,0,9,20h7.5A5.51,5.51,0,0,0,22,14.5,5.36,5.36,0,0,0,21.21,11.67Z"/></svg>