<svg id="Icons" xmlns="http://www.w3.org/2000/svg" viewBox="0 0 24 24"><defs><style>.cls-1{fill:#8ac8fb;}.cls-2{fill:#bbdefb;}</style></defs><title>Cloudy</title><path class="cls-1" d="M20.24,5.47A3.39,3.39,0,0,0,18.5,5h-.75a4.4,4.4,0,0,0-3.42-1.67A4.33,4.33,0,0,0,10,7.26a1,1,0,0,0,.66,1,5,5,0,0,1,2.64,2.21,1,1,0,0,0,.87.5H16.5a3.51,3.51,0,0,1,1.75.47,2.82,2.82,0,0,1,.36.24,1,1,0,0,0,.59.19.9.9,0,0,0,.28,0,3.49,3.49,0,0,0,.76-6.39Z"/><path class="cls-2" d="M21.21,11.67A5.49,5.49,0,0,0,16.5,9H14.74a6.61,6.61,0,0,0-.83-1A7,7,0,1,0,9,20h7.5A5.51,5.51,0,0,0,22,14.5,5.36,5.36,0,0,0,21.21,11.67Z"/></svg>