<svg id="Icons" xmlns="http://www.w3.org/2000/svg" viewBox="0 0 24 24"><defs><style>.cls-1{fill:#bbdefb;}.cls-2{fill:#8ac8fb;}.cls-3{fill:#53affb;}</style></defs><title>Rain 2</title><path class="cls-1" d="M21.21,8.67A5.49,5.49,0,0,0,16.5,6H14.74a6.61,6.61,0,0,0-.83-1A7,7,0,1,0,9,17h7.5A5.51,5.51,0,0,0,22,11.5,5.36,5.36,0,0,0,21.21,8.67Z"/><path class="cls-2" d="M9,17a1,1,0,0,1-1-1V14a1,1,0,0,1,2,0v2A1,1,0,0,1,9,17Z"/><path class="cls-2" d="M15,16a1,1,0,0,1-1-1V13a1,1,0,0,1,2,0v2A1,1,0,0,1,15,16Z"/><path class="cls-2" d="M12,19a1,1,0,0,1-1-1V15a1,1,0,0,1,2,0v3A1,1,0,0,1,12,19Z"/><circle class="cls-3" cx="12" cy="21" r="1"/><circle class="cls-3" cx="9" cy="19" r="1"/><circle class="cls-3" cx="15" cy="18" r="1"/></svg>